<?xml version="1.0" encoding="UTF-8" standalone="no"?>
<svg
   xmlns:dc="http://purl.org/dc/elements/1.1/"
   xmlns:cc="http://creativecommons.org/ns#"
   xmlns:rdf="http://www.w3.org/1999/02/22-rdf-syntax-ns#"
   xmlns:svg="http://www.w3.org/2000/svg"
   xmlns="http://www.w3.org/2000/svg"
   xmlns:xlink="http://www.w3.org/1999/xlink"
   xmlns:sodipodi="http://sodipodi.sourceforge.net/DTD/sodipodi-0.dtd"
   xmlns:inkscape="http://www.inkscape.org/namespaces/inkscape"
   version="1.1"
   id="svg833"
   xml:space="preserve"
   width="1333.3333"
   height="1333.3333"
   viewBox="0 0 1333.3333 1333.3333"
   sodipodi:docname="master-logo.svg"
   inkscape:version="1.0.2-2 (e86c870879, 2021-01-15)"><metadata
     id="metadata839"><rdf:RDF><cc:Work
         rdf:about=""><dc:format>image/svg+xml</dc:format><dc:type
           rdf:resource="http://purl.org/dc/dcmitype/StillImage" /><dc:title></dc:title></cc:Work></rdf:RDF></metadata><defs
     id="defs837"><linearGradient
       inkscape:collect="always"
       id="linearGradient895"><stop
         style="stop-color:#36a7cd;stop-opacity:1;"
         offset="0"
         id="stop891" /><stop
         style="stop-color:#36a7cd;stop-opacity:0;"
         offset="1"
         id="stop893" /></linearGradient><clipPath
       clipPathUnits="userSpaceOnUse"
       id="clipPath855"><path
         d="M 0,1000 H 1000 V 0 H 0 Z"
         id="path853" /></clipPath><linearGradient
       inkscape:collect="always"
       xlink:href="#linearGradient895"
       id="linearGradient897"
       x1="384.2598"
       y1="500.00629"
       x2="591.7998"
       y2="292.4613"
       gradientUnits="userSpaceOnUse" /></defs><sodipodi:namedview
     pagecolor="#ffffff"
     bordercolor="#666666"
     borderopacity="1"
     objecttolerance="10"
     gridtolerance="10"
     guidetolerance="10"
     inkscape:pageopacity="0"
     inkscape:pageshadow="2"
     inkscape:window-width="3440"
     inkscape:window-height="1387"
     id="namedview835"
     showgrid="false"
     inkscape:pagecheckerboard="true"
     inkscape:zoom="0.63480515"
     inkscape:cx="500.452"
     inkscape:cy="701.96733"
     inkscape:window-x="-8"
     inkscape:window-y="-8"
     inkscape:window-maximized="1"
     inkscape:current-layer="g841" /><g
     id="g841"
     inkscape:groupmode="layer"
     inkscape:label="influence-icon-white-variant-dark-bg"
     transform="matrix(1.3333333,0,0,-1.3333333,0,1333.3333)"><g
       id="g845"
       transform="translate(799.3379,799.3369)"><path
         d="m 0,0 -83.21,35.474 h -83.084 L -112.679,12.394 -129.688,0 l 17.009,-12.394 -53.615,-23.066 h 83.084 z"
         style="fill:#ffffff;fill-opacity:1;fill-rule:nonzero;stroke:none"
         id="path847" /></g><g
       id="g857"
       transform="translate(799.3379,500.0063)"><path
         d="M 0,0 C 0,-114.629 -92.916,-207.545 -207.538,-207.545 V 207.539 C -92.916,207.539 0,114.622 0,0"
         style="fill:#ffffff;fill-opacity:1;fill-rule:nonzero;stroke:none"
         id="path859" /></g><g
       id="g861"
       transform="translate(589.4102,184.4902)"><path
         d="m 0,0 c -173.975,0 -315.543,141.549 -315.543,315.516 0,173.974 141.568,315.516 315.543,315.516 0.806,0 1.59,-0.118 2.39,-0.237 v 75.837 c -216.025,0 -391.138,-175.12 -391.138,-391.116 0,-216.016 175.113,-391.129 391.138,-391.129 V 0.236 C 1.59,0.125 0.806,0 0,0"
         style="fill:#ffffff;fill-opacity:1;fill-rule:nonzero;stroke:none"
         id="path863" /></g><path
       d="m 384.2598,500.0063 c 0,114.622 92.924,207.539 207.54,207.539 v 75.76 c -0.8,-0.119 -1.584,-0.243 -2.39,-0.243 -156.087,0 -283.068,-126.982 -283.068,-283.056 0,-156.067 126.981,-283.047 283.068,-283.047 0.806,0 1.59,-0.114 2.39,-0.25 v 75.752 c -114.616,0 -207.54,92.916 -207.54,207.545"
       style="fill:url(#linearGradient897);fill-opacity:1;fill-rule:nonzero;stroke:none;stroke-width:1.00063;stroke-miterlimit:4;stroke-dasharray:none"
       id="path867" /></g></svg>
